<svg width="280" height="160" viewBox="0 0 280 160" fill="none" xmlns="http://www.w3.org/2000/svg">
<g clip-path="url(#clip0_6_990)">
<path d="M100 160C100 146.868 97.4134 133.864 92.388 121.732C87.3625 109.599 79.9965 98.5752 70.7107 89.2893C61.4248 80.0035 50.4009 72.6375 38.2683 67.612C26.1358 62.5866 13.1322 60 -4.37114e-06 60L-2.62268e-06 100C7.87931 100 15.6815 101.552 22.961 104.567C30.2405 107.583 36.8549 112.002 42.4264 117.574C47.9979 123.145 52.4175 129.759 55.4328 137.039C58.4481 144.319 60 152.121 60 160H100Z" fill="#B48700"/>
<path d="M-4.37114e-06 100C26.5216 100 51.957 89.4643 70.7107 70.7107C89.4643 51.9571 100 26.5217 100 3.57628e-05L60 2.14577e-05C60 15.913 53.6786 31.1742 42.4264 42.4264C31.1742 53.6786 15.913 60 -2.62268e-06 60L-4.37114e-06 100Z" fill="url(#paint0_linear_6_990)"/>
<path d="M180 0C180 13.1322 182.587 26.1358 187.612 38.2683C192.638 50.4009 200.003 61.4248 209.289 70.7107C218.575 79.9965 229.599 87.3625 241.732 92.388C253.864 97.4134 266.868 100 280 100L280 60C272.121 60 264.319 58.4481 257.039 55.4328C249.759 52.4175 243.145 47.9979 237.574 42.4264C232.002 36.8549 227.583 30.2405 224.567 22.961C221.552 15.6815 220 7.87931 220 0H180Z" fill="#0B55C2"/>
<path d="M280 60C253.478 60 228.043 70.5357 209.289 89.2893C190.536 108.043 180 133.478 180 160L220 160C220 144.087 226.321 128.826 237.574 117.574C248.826 106.321 264.087 100 280 100L280 60Z" fill="url(#paint1_linear_6_990)"/>
<path d="M170 0L220 0L110 160H60L170 0Z" fill="#FC4141"/>
</g>
<defs>
<linearGradient id="paint0_linear_6_990" x1="100" y1="0" x2="0" y2="100" gradientUnits="userSpaceOnUse">
<stop stop-color="#FFCF40"/>
<stop offset="1" stop-color="#FFBF00"/>
</linearGradient>
<linearGradient id="paint1_linear_6_990" x1="180" y1="160" x2="280" y2="60" gradientUnits="userSpaceOnUse">
<stop stop-color="#0D6EFD"/>
<stop offset="1" stop-color="#418EFF"/>
</linearGradient>
<clipPath id="clip0_6_990">
<rect width="280" height="160" fill="white"/>
</clipPath>
</defs>
</svg>
