<?xml version="1.0" encoding="UTF-8" standalone="no" ?>
<!DOCTYPE svg PUBLIC "-//W3C//DTD SVG 1.1//EN" "http://www.w3.org/Graphics/SVG/1.1/DTD/svg11.dtd">
<svg xmlns="http://www.w3.org/2000/svg" xmlns:xlink="http://www.w3.org/1999/xlink" version="1.1" width="211.27" height="159.43" viewBox="535.4350000000001 939.675 211.27 159.43" xml:space="preserve">
<desc>Created with Fabric.js 5.3.0</desc>
<defs>
</defs>
<g transform="matrix(1 0 0 1 641.07 1019.39)" id="7jGB8GKI9fKbDpbru-Wc9"  >
<g style="" vector-effect="non-scaling-stroke"   >
		<g transform="matrix(1 0 0 1 0.14 56.72)" style="" id="1g3v-MwGcMjW2KpwxJEQi">
</g>		<g transform="matrix(2.06 0 0 2.06 0 -29.18)" id="eKdvzcWBL0a0x_X8-PY09"  >
<g style="" vector-effect="non-scaling-stroke"   >
		<g transform="matrix(0.35 0 0 0.35 -27.28 4.93)" id="nZZv8kuNa7t6GMKe9Q6EB"  >
<path style="stroke: #b7c6d4; stroke-width: 4; stroke-dasharray: none; stroke-linecap: butt; stroke-dashoffset: 0; stroke-linejoin: miter; stroke-miterlimit: 4; fill: #b7c6d4; fill-rule: nonzero; opacity: 1;" vector-effect="non-scaling-stroke"  transform=" translate(-62.499995, -50)" d="M 0 21.2132 C 0 9.49747 9.49747 0 21.2132 0 L 30.63093 0 C 30.219079999999998 1.59827 30 3.27371 30 5 C 30 16.04 38.96 25 50 25 C 61.04 25 70 16.04 70 5 C 70 3.27371 69.78092 1.5982699999999999 69.36907 0 L 78.78679 0 C 90.50252 0 99.99999 9.49747 99.99999 21.2132 L 99.99999 30.63093 C 101.59826 30.219079999999998 103.27369999999999 30 104.99999 30 C 116.03998999999999 30 124.99999 38.96 124.99999 50 C 124.99999 61.04 116.03998999999999 70 104.99999 70 C 103.27369999999999 70 101.59826 69.78092 99.99999 69.36907 L 99.99999 78.7868 C 99.99999 90.50253000000001 90.50252 100 78.78679 100 L 69.36907 100 C 69.78092 98.40173 70 96.7263 70 95.00001 C 70 83.96001000000001 61.04 75.00001 50 75.00001 C 38.96 75.00001 30 83.96001000000001 30 95.00001 C 30 96.72630000000001 30.21908 98.40173 30.63093 100 L 21.2132 100 C 9.49747 100 0 90.50253000000001 0 78.7868 z" stroke-linecap="round" />
</g>
		<g transform="matrix(0.35 0 0 0.35 31.33 4.93)" id="4fcwvExmcRR3Zo2jjUwKk"  >
<path style="stroke: #b7c6d4; stroke-width: 4; stroke-dasharray: none; stroke-linecap: butt; stroke-dashoffset: 0; stroke-linejoin: miter; stroke-miterlimit: 4; fill: #b7c6d4; fill-rule: nonzero; opacity: 1;" vector-effect="non-scaling-stroke"  transform=" translate(-51, -49.999995)" d="M 0 21.2132 C 0 9.49747 9.68741 0 21.63746 0 L 80.36254 0 C 90.27269 0 98.62674999999999 6.53175 101.19008 15.44363 C 99.80672999999999 15.15299 98.37147999999999 15 96.90001 15 C 85.63920999999999 15 76.50001 23.96 76.50001 35 C 76.50001 46.04 85.63921 55 96.90001000000001 55 C 98.66082000000002 55 100.36977 54.78092 102.00000000000001 54.36907 L 102.00000000000001 78.78679 C 102.00000000000001 90.50252 92.31259000000001 99.99999 80.36254000000001 99.99999 L 21.63746000000001 99.99999 C 11.727310000000012 99.99999 3.3732600000000126 93.46825 0.8099200000000124 84.55637 C 2.193280000000012 84.84701 3.6285200000000124 85 5.100000000000012 85 C 16.360800000000012 85 25.50000000000001 76.03999999999999 25.50000000000001 65 C 25.50000000000001 53.96 16.360800000000012 45 5.100000000000012 45 C 3.339190000000012 45 1.630230000000012 45.21908 1.2434497875801753e-14 45.63093 z" stroke-linecap="round" />
</g>
		<g transform="matrix(0.35 0 0 0.35 0 -15.49)" id="Sr1WCTywW17GB2NGlem7o"  >
<path style="stroke: #b7c6d4; stroke-width: 4; stroke-dasharray: none; stroke-linecap: butt; stroke-dashoffset: 0; stroke-linejoin: miter; stroke-miterlimit: 4; fill: #b7c6d4; fill-rule: nonzero; opacity: 1;" vector-effect="non-scaling-stroke"  transform=" translate(0, 0)" d="M 0 -20 C 11.04 -20 20 -11.04 20 0 C 20 11.04 11.04 20 0 20 C -11.04 20 -20 11.04 -20 0 C -20 -11.04 -11.04 -20 0 -20 z" stroke-linecap="round" />
</g>
</g>
</g>
</g>
</g>
</svg>
