<?xml version="1.0" encoding="utf-8"?>
<!-- Generator: Adobe Illustrator 24.1.1, SVG Export Plug-In . SVG Version: 6.00 Build 0)  -->
<svg version="1.1" id="Слой_1" xmlns="http://www.w3.org/2000/svg" xmlns:xlink="http://www.w3.org/1999/xlink" x="0px" y="0px"
	 viewBox="0 0 957 200" style="enable-background:new 0 0 957 200;" xml:space="preserve">
<style type="text/css">
	.st0{fill:#FEFEFE;}
	.st1{fill:#030202;}
	.st2{fill:#905FBF;}
	.st3{fill:#C07FFF;}
	.st4{fill:#604080;}
	.st5{fill:#F2F2F2;}
	.st6{fill:#F2E5FF;}
	.st7{fill:#FBB42D;}
	.st8{stroke:#F2F2F2;stroke-width:0.5;stroke-miterlimit:10;}
	.st9{font-family:'Flux';}
	.st10{font-size:181px;}
</style>
<path class="st0" d="M586.15,52.81c3.88,0.29,7.79,0.57,11.7,0.89c0.95,0.08,1.9,0.28,2.82,0.53c0.89,0.25,1.63,0.81,1.74,1.81
	c0.11,1.09-0.54,1.79-1.41,2.32c-1.3,0.78-2.79,0.94-4.24,1.22c-1.6,0.3-3.2,0.57-4.8,0.88c-1.19,0.22-2.36,1.45-2.49,3.02
	c-0.04,0.5-0.4,0.8-0.92,0.75c-0.52-0.05-0.81-0.43-0.79-0.9c0.1-1.86-1.27-3.08-2.58-3.43c-1.5-0.4-3.04-0.71-4.45-1.32
	c-1.39-0.61-2.59-1.79-2.36-3.41c0.22-1.52,1.73-1.93,3.07-2.09C582.98,52.88,584.54,52.89,586.15,52.81z M586.67,54.12
	c0,0.06-0.01,0.13-0.01,0.19c-1.56,0-3.12-0.05-4.68,0.02c-0.88,0.04-2.04,0.16-2.24,1.09c-0.19,0.9,0.75,1.81,1.55,1.93
	c3.5,0.51,6.47,3.48,10.48,1.87c2.23-0.89,4.79-0.92,7.19-1.43c0.84-0.18,2.02-0.49,2.01-1.47c-0.02-1.09-1.24-1.08-2.1-1.16
	C594.81,54.8,590.74,54.47,586.67,54.12z"/>
<path class="st0" d="M611,34.66c-0.4,0-1.48-0.15-0.93-1.42c0.82-1.87,1.48-3.86,2.81-5.47c0.5-0.6,1.15-1.31,2.06-0.86
	c0.91,0.45,0.81,1.3,0.55,2.12c-0.42,1.33-0.8,2.68-1.31,3.97C613.74,34.14,612.8,34.68,611,34.66z"/>
<path class="st0" d="M572.65,27.88c0.02-0.59-0.01-1.46,1.2-1.43c1.41,0.04,4.02,2.56,4.04,4.01c0.02,1.63-1.25,2.11-2.51,2.28
	C574.21,32.89,572.73,30.26,572.65,27.88z"/>
<path class="st0" d="M575.14,61.49c-0.86-0.14-1.49,1.49-2.24,1.69c-0.65,0.17-1.5,1.14-1.9,0.22c-0.48-1.1,0.92-2.01,1.51-2.38
	c0.59-0.37,1.3-0.58,2.46-1.06c-1.73-0.54-3-0.22-4.24-0.13c-1.03,0.08-2.05,0.22-3.08,0.3c-0.35,0.03-0.78-0.01-0.82-0.51
	c-0.03-0.46,0.31-0.67,0.69-0.7c2.13-0.2,4.25-0.44,6.39-0.51c0.74-0.02,1.86,0.13,0.74,1.41c-0.22,0.25,0.28,1.13,0.45,1.72
	L575.14,61.49z"/>
<path class="st0" d="M574.16,51.19c3.72-1.96,7.6-2.81,11.71-1.61C582.04,50.6,578.03,50.3,574.16,51.19z"/>
<path class="st0" d="M606.91,51.73c-3.86-0.82-7.77-0.85-12.17-1.25C597.42,48.73,603.59,49.41,606.91,51.73z"/>
<path class="st0" d="M818.69,32.85c-1.94,1.36-4,2.35-6.07,3.33c-0.44,0.21-1.05,0.52-1.35-0.11c-0.32-0.67,0.34-0.85,0.8-1.06
	c2.41-1.12,4.85-2.19,6.76-4.12c0.29-0.29,0.66-0.46,0.98-0.21c0.45,0.34,0.26,0.79-0.05,1.14
	C819.41,32.21,819.01,32.54,818.69,32.85z"/>
<path class="st0" d="M609.57,58.04c-1.25,0.07-2.51,0.14-3.76,0.22c-0.49,0.03-0.96-0.11-0.99-0.61c-0.03-0.53,0.45-0.68,0.94-0.7
	c2.66-0.12,5.31-0.24,7.97-0.37c0.5-0.02,0.9,0.12,0.85,0.71c-0.04,0.44-0.4,0.54-0.8,0.56C612.37,57.9,610.97,57.97,609.57,58.04z"
	/>
<path class="st0" d="M814.72,22.18c0.05,0.19,0.19,0.41,0.15,0.6c-0.07,0.33-0.37,0.43-0.69,0.4c-2.51-0.3-5-0.17-7.49,0.24
	c-0.42,0.07-0.73-0.16-0.88-0.51c-0.14-0.32,0.08-0.6,0.38-0.66c2.69-0.56,5.4-0.7,8.13-0.31
	C814.45,21.96,814.57,22.08,814.72,22.18z"/>
<path class="st0" d="M608.78,58.87c1.32,0.1,2.65,0.18,3.97,0.3c0.37,0.03,0.79,0.14,0.77,0.61c-0.02,0.58-0.48,0.66-0.95,0.64
	c-2.06-0.1-4.13-0.21-6.19-0.3c-0.48-0.02-0.99-0.11-0.97-0.65c0.02-0.68,0.62-0.69,1.15-0.66c0.74,0.04,1.47,0.08,2.21,0.12
	C608.77,58.92,608.78,58.89,608.78,58.87z"/>
<path class="st0" d="M812.21,29.08c1.9-0.78,3.93-1.63,5.98-2.45c0.34-0.14,0.74-0.2,0.96,0.21c0.22,0.42-0.03,0.73-0.38,0.88
	c-2.09,0.89-4.19,1.76-6.3,2.6c-0.19,0.08-0.61-0.08-0.74-0.26C811.45,29.67,811.8,29.41,812.21,29.08z"/>
<path class="st0" d="M649.08,125.57c0.25-0.71-0.06-1.9,1.02-1.92c0.81-0.02,1.05,0.91,0.97,1.72c-0.08,0.83-0.31,1.81-1.23,1.82
	C648.97,127.21,649.25,126.18,649.08,125.57z"/>
<path class="st0" d="M703.99,123.06c0.02,0,0.03,0,0.05-0.01c0.25-0.55,0.87-0.96,0.63-1.73c-0.21-0.67-0.47-1.23-1.15-1.5
	c-0.39-0.15-0.8-0.02-0.99,0.29c-0.39,0.66-0.12,1.31,0.31,1.84C703.18,122.37,703.59,122.7,703.99,123.06z"/>
<path class="st0" d="M645.88,124.56c0.18-0.63,0.13-1.55,0.99-1.51c1.06,0.05,1.06,1.07,1.13,1.85c0.06,0.7-0.17,1.47-0.96,1.47
	C645.89,126.37,646.09,125.28,645.88,124.56z"/>
<path class="st0" d="M609.66,45.28c-0.09,0.62-0.42,0.88-0.78,0.68c-0.98-0.56-2.36-0.51-2.88-1.73c-0.12-0.3,0.37-0.67,0.77-0.53
	C607.84,44.07,608.96,44.4,609.66,45.28z"/>
<path class="st0" d="M707.13,117.29c0.78,0.48,1.49,1.11,1.57,2.12c0.04,0.53-0.4,1.08-0.98,0.78c-0.81-0.41-1.8-0.82-1.69-2.02
	C706.07,117.59,706.47,117.29,707.13,117.29z"/>
<path class="st0" d="M575.02,41.82c-0.12,0.85-0.8,1-1.3,1.14c-0.73,0.2-1.39,1.03-2.24,0.38c-0.12-0.09-0.17-0.5-0.09-0.57
	c0.89-0.82,2-1.14,3.17-1.28C574.71,41.46,574.9,41.72,575.02,41.82z"/>
<path class="st0" d="M607.59,63.58c-0.15,0.58-0.6,0.8-0.86,0.6c-0.83-0.64-2.16-1.69-2.48-2.9c-0.08-0.29,0.39-0.64,0.79-0.45
	C606,61.28,607.07,62.61,607.59,63.58z"/>
<path class="st0" d="M698.91,122.5c0,0,0.07-0.05,0.07-0.05c-0.15-0.16-0.35-0.3-0.44-0.49c-0.35-0.75-0.66-1.58,0.2-2.17
	c0.73-0.5,1.13,0.2,1.29,0.71C700.33,121.47,700.41,122.47,698.91,122.5z"/>
<path class="st0" d="M652.27,124.34c0.11-0.7,0.05-1.59,1.08-1.54c0.56,0.03,0.86,0.61,0.72,1.16c-0.17,0.68-0.29,1.59-1.18,1.63
	C652.06,125.64,652.08,124.96,652.27,124.34z"/>
<path class="st0" d="M732.69,64.53c-1.3,0.02-2.6,0.04-3.9,0.05"/>
<path class="st0" d="M575.08,61.53c0.13,0.01,0.31,0.09,0.39,0.03c0.44-0.31,0.58-1.14,1.37-0.83c0.24,0.1,0.49,0.39,0.29,0.72
	c-0.3,0.49-0.53,2.16-1.16,2.25c-0.94,0.13-0.41-1.89-0.83-2.22C575.14,61.49,575.08,61.53,575.08,61.53z"/>
<path class="st1" d="M586.67,54.12c4.07,0.34,8.14,0.67,12.21,1.04c0.85,0.08,2.08,0.06,2.1,1.16c0.01,0.97-1.17,1.28-2.01,1.47
	c-2.39,0.51-4.96,0.54-7.19,1.43c-4.01,1.61-6.98-1.36-10.48-1.87c-0.8-0.12-1.74-1.02-1.55-1.93c0.2-0.93,1.35-1.05,2.24-1.09
	c1.56-0.06,3.12-0.02,4.68-0.02C586.66,54.25,586.66,54.19,586.67,54.12z"/>
<path d="M106.5-190.43c9.29,0,18.58-0.03,27.86,0.03c1.34,0.01,1.87-0.24,1.82-1.72c-0.11-3.44-0.03-3.44-3.45-3.44
	c-12.01,0.01-24.02-0.01-36.03,0.05c-1.3,0.01-1.77-0.28-1.73-1.68c0.17-6.17-0.23-12.35,0.2-18.51
	c0.47-6.73,3.75-11.47,10.07-14.07c5.27-2.17,10.81-3.1,16.42-3.74c11.96-1.35,23.89-1.1,35.73,1.07c7.79,1.43,14,5.41,17.77,12.61
	c1.38,2.65,2.04,5.53,2.04,8.52c0.02,13.13-0.02,26.26,0.01,39.38c0.02,10.8-8.83,20.89-21.26,20.72
	c-13.52-0.18-27.04-0.05-40.56-0.02c-4.83,0.01-9.32,1.3-13.39,3.92c-4.51,2.91-7.67,6.96-10.02,11.73
	c-1.54,3.12-2.1,6.39-2.07,9.83c0.04,5.83,0,11.67,0.02,17.5c0,0.79,0.02,1.38-1.1,1.36c-4.76-0.08-9.53,0.03-14.29-0.12
	c-6.94-0.22-12.12-3.6-15.89-9.31c-3.47-5.27-4.82-11.28-6.06-17.34c-1.36-6.66-1.98-13.39-1.41-20.15
	c0.59-6.92,1.69-13.81,4.19-20.32c3.89-10.16,13.07-16.24,24.31-16.32c8.95-0.06,17.9-0.01,26.84-0.01
	C106.5-190.45,106.5-190.44,106.5-190.43z M112.98-206.13c4.25,0,7.76-3.47,7.72-7.66c-0.04-4.37-3.47-7.9-7.69-7.89
	c-4.23,0-7.68,3.46-7.67,7.7C105.36-209.5,108.64-206.13,112.98-206.13z"/>
<path class="st2" d="M104.75-69.97c-5.54-3.42-9.14-8.11-9.61-14.8c-0.21-2.95-0.19-5.9-0.01-8.86c0.64,0.07,1.11-0.3,1.59-0.63
	c1.51-1.06,3.01-2.14,4.51-3.2c7.35-5.23,14.71-10.45,22.06-15.68c8.18-5.83,16.35-11.66,24.52-17.5
	c6.16-4.4,12.32-8.79,18.48-13.19c7.74-5.52,15.49-11.03,23.22-16.56c5.88-4.2,11.73-8.44,17.64-12.61
	c2.65-1.87,5.17-3.94,8.01-5.55c0.94,1.48,1.47,3.13,1.94,4.78c1.37,4.8,2.7,9.62,3.39,14.58c0.37,2.67,0.55,5.38,0.82,8.06
	c-0.75-0.05-1.28,0.42-1.83,0.81c-5.13,3.66-10.24,7.34-15.36,11c-3.04,2.17-6.09,4.31-9.13,6.48
	c-7.32,5.25-14.62,10.53-21.95,15.78c-3.94,2.82-7.93,5.58-11.85,8.43c-0.58,0.42-1.47,0.67-1.54,1.62
	c-3.35,0.03-6.7,0.08-10.05,0.09c-4.03,0.02-8.07,0.03-12.1-0.01c-0.96-0.01-1.36,0.18-1.36,1.26c-0.02,4.01-0.06,4,3.99,4.02
	c2.62,0.01,5.24,0.06,7.86,0.09c-0.5,1.6-2.09,2.08-3.24,2.93c-5.32,3.95-10.74,7.76-16.15,11.61c-6.31,4.49-12.64,8.94-18.95,13.43
	C107.99-72.42,106.38-71.18,104.75-69.97z"/>
<path d="M330.27,131.29c0-17.4,0.01-34.81-0.02-52.21c0-0.98,0.23-1.73,0.91-2.47c4.09-4.44,9.23-7.22,14.74-9.4
	c6.91-2.73,14.16-3.82,21.53-3.93c9.34-0.15,17.54,2.59,23.61,10.13c4.51,5.6,7.3,12.01,8.74,19.02c2.02,9.87,2.36,19.77-0.11,29.61
	c-1.76,7.05-5,13.36-10.19,18.55c-5.09,5.09-11.29,7.75-18.44,8.36c-8.99,0.76-17.22-1.6-24.95-6.03c-0.21-0.12-0.42-0.25-0.63-0.37
	c-1.51-0.87-1.52-0.87-1.52,0.86c0,14.97,0,29.94,0,44.92c0,1.75,0,1.76-1.7,1.15c-3.52-1.26-7.03-2.57-10.58-3.74
	c-1.14-0.38-1.43-0.94-1.43-2.09C330.28,166.2,330.27,148.74,330.27,131.29z M343.96,105.48c0,8.46,0,16.92-0.01,25.38
	c0,0.79,0.02,1.44,0.87,1.95c5.12,3.08,10.46,5.64,16.46,6.37c5.75,0.7,11.18-0.24,15.69-4.22c4.53-4,6.44-9.37,7.57-15.09
	c1.52-7.76,1.33-15.57,0.53-23.37c-0.52-5.09-1.59-10.08-4.01-14.67c-2.59-4.93-6.48-8.25-12.06-9.18c-3.17-0.53-6.4-0.35-9.58,0.19
	c-4.97,0.84-9.7,2.4-14.08,4.96c-1.03,0.6-1.42,1.37-1.41,2.6C343.98,88.76,343.96,97.12,343.96,105.48z"/>
<path d="M482.9,106.65c0,11.77,0.04,23.53-0.01,35.3c-0.03,6.76-0.57,13.47-1.67,20.16c-1.56,9.45-6.67,16.16-15.05,20.58
	c-7.6,4.01-15.73,6.11-24.24,6.8c-3.76,0.31-3.76,0.23-4.73-3.48c-0.28-1.08-0.44-2.21-0.86-3.23c-0.6-1.45,0.01-1.81,1.32-1.95
	c4.11-0.44,8.17-1.2,12.2-2.11c4.31-0.98,8.34-2.6,11.92-5.25c4.7-3.48,6.77-8.34,7.45-13.97c0.62-5.12,0.82-10.26,0.81-15.42
	c0-1.69-0.01-1.7-1.54-1.06c-9.58,4.05-19.55,6.06-29.97,5.64c-9.82-0.4-21.46-8.01-23.7-18.48c-0.4-1.87-0.55-3.74-0.55-5.64
	c0-18.38,0.01-36.75-0.02-55.13c0-1.08,0.27-1.63,1.37-1.98c3.56-1.13,7.08-2.4,10.62-3.61c1.59-0.54,1.61-0.53,1.61,1.15
	c0,18.09-0.01,36.17,0.01,54.26c0,2.67,0.13,5.35,0.99,7.92c2.22,6.7,7.22,10.14,13.8,11.58c8.86,1.95,16.77-0.7,24.34-5.14
	c1.73-1.01,2.3-2.12,2.29-4.13c-0.09-20.81-0.04-41.62-0.08-62.42c0-1.37,0.3-1.85,1.75-1.8c3.35,0.11,6.71,0.03,10.06,0.03
	c1.91,0,1.91,0,1.91,1.85C482.91,80.3,482.91,93.47,482.9,106.65C482.91,106.65,482.91,106.65,482.9,106.65z"/>
<path d="M543.37,84.19c0-20.42,0.02-40.84-0.04-61.26c0-1.37,0.39-1.95,1.69-2.32c3.5-1,6.96-2.15,10.44-3.24
	c1.59-0.5,1.6-0.49,1.6,1.18c0,17.84,0,35.68,0.01,53.53c0,0.6-0.32,1.44,0.25,1.73c0.48,0.25,0.98-0.48,1.45-0.79
	c8.04-5.43,16.91-8.19,26.59-8.33c15.3-0.21,24.35,11.64,24.49,23.6c0.22,19.2,0.09,38.4,0.14,57.61c0,1.03-0.33,1.33-1.34,1.31
	c-3.55-0.05-7.1-0.07-10.65,0.01c-1.27,0.03-1.66-0.29-1.65-1.61c0.06-8.17,0.03-16.33,0.03-24.5c0-8.6,0.02-17.21-0.01-25.81
	c-0.02-4.31-0.62-8.51-2.52-12.46c-3.17-6.6-9.35-9.74-16.57-8.45c-6.01,1.08-11.26,3.86-16.36,7.03c-3.85,2.39-3.86,2.38-3.86,6.91
	c0,19.06-0.01,38.11,0.02,57.17c0,1.27-0.25,1.77-1.65,1.73c-3.5-0.11-7-0.1-10.5,0c-1.33,0.04-1.59-0.4-1.59-1.64
	C543.38,125.12,543.37,104.66,543.37,84.19z"/>
<path class="st3" d="M215.16-178.55c-2.84,1.6-5.36,3.67-8.01,5.55c-5.9,4.17-11.76,8.41-17.64,12.61
	c-7.74,5.52-15.48,11.04-23.22,16.56c-6.16,4.39-12.32,8.79-18.48,13.19c-8.17,5.83-16.34,11.67-24.52,17.5
	c-7.35,5.24-14.71,10.46-22.06,15.68c-1.5,1.07-3,2.15-4.51,3.2c-0.47,0.33-0.94,0.7-1.59,0.63c-0.03-0.29-0.09-0.58-0.09-0.86
	c-0.01-10.16-0.1-20.31,0.02-30.47c0.14-12.18,9.29-21.12,21.48-21.13c13.41-0.01,26.83,0,40.24,0c12.55,0,24.11-10.38,25.36-22.9
	c0.65-6.54,0.18-13.11,0.22-19.67c0.01-1.46,0.33-1.86,1.82-1.82c4.47,0.11,8.94,0.03,13.41,0.04c3.87,0.01,7.55,0.81,10.71,3.15
	C211.36-185.01,213.69-182.1,215.16-178.55z"/>
<path d="M622.6,106.37c-0.38-13.49,3.62-25.27,13.75-34.56c5.69-5.22,12.54-7.78,20.21-8.37c7.55-0.58,14.81,0.43,21.39,4.28
	c10.5,6.14,16.56,15.55,18.75,27.36c1.96,10.59,1.14,21.05-3.16,31.01c-4.11,9.54-10.43,17.27-20.63,20.57
	c-13.14,4.26-25.72,3.2-36.51-6.29c-6.79-5.96-10.61-13.79-12.52-22.57C623.06,114.04,622.63,110.23,622.6,106.37z M682.61,104.4
	c0.06-6.45-0.86-13.82-4.62-20.57c-4.4-7.91-11.14-11.75-20.19-10.97c-5.85,0.51-10.8,3.03-14.4,7.85
	c-2.59,3.46-4.01,7.41-4.89,11.59c-1.35,6.38-1.44,12.83-0.85,19.29c0.56,6.14,1.94,12.06,4.8,17.6
	c6.19,11.95,17.75,13.1,26.77,9.12c5.44-2.4,8.4-7.06,10.36-12.41C681.99,119.32,682.58,112.46,682.61,104.4z"/>
<path d="M709.92,111.94c0-10.6,0.1-21.2-0.07-31.79c-0.04-2.51,0.73-3.93,2.79-5.26c5.66-3.65,11.39-7.11,17.94-8.91
	c7.25-2,14.6-3.29,22.17-2.5c7.77,0.81,14.62,3.52,19.55,9.93c2.26,2.94,3.53,6.3,3.57,9.99c0.09,10.01,0.06,20.03,0.07,30.04
	c0.01,10.74-0.02,21.49,0.03,32.23c0.01,1.21-0.31,1.58-1.54,1.55c-3.5-0.08-7-0.09-10.5,0c-1.36,0.04-1.69-0.38-1.69-1.71
	c0.04-17.65,0.03-35.29,0.03-52.94c0-2.58-0.08-5.16-0.85-7.65c-2.23-7.29-7.37-11.27-14.71-12.39c-7.84-1.2-15.01,0.85-21.67,5.02
	c-1.07,0.67-1.47,1.39-1.47,2.68c0.05,21.68,0.03,43.36,0.03,65.04c0,1.91,0,1.91-1.86,1.91c-3.4,0-6.81-0.06-10.21,0.03
	c-1.26,0.03-1.65-0.28-1.64-1.6C709.95,134.4,709.92,123.17,709.92,111.94z"/>
<path d="M517.88,101.84c0,8.36-0.01,16.72,0.01,25.09c0,2.54,0.27,5.05,1.23,7.43c1.16,2.86,3.33,4.61,6.2,5.54
	c2.13,0.69,4.31,1.21,6.57,1.19c1.04-0.01,1.48,0.32,1.42,1.43c-0.09,1.6-0.03,3.21-0.02,4.81c0,0.58-0.03,1.01-0.81,1.08
	c-6.51,0.56-12.84-0.01-18.67-3.24c-5.71-3.16-8.68-8.18-9.37-14.59c-0.19-1.73-0.21-3.49-0.21-5.24
	c-0.01-16.53-0.03-33.06,0.03-49.59c0.01-1.49-0.4-1.93-1.87-1.85c-2.13,0.13-4.28,0.01-6.42,0.04c-0.8,0.01-1.14-0.24-1.12-1.08
	c0.04-2.19,0.04-4.38,0-6.56c-0.02-0.87,0.38-1.06,1.15-1.05c2.24,0.03,4.48-0.06,6.71,0.04c1.25,0.05,1.54-0.41,1.53-1.58
	c-0.05-6.56,0.01-13.13-0.05-19.69c-0.01-1.18,0.37-1.72,1.47-2.09c3.64-1.23,7.25-2.52,10.85-3.86c1.13-0.42,1.41-0.19,1.41,1
	c-0.04,8.17,0.01,16.34-0.05,24.5c-0.01,1.3,0.29,1.76,1.68,1.73c4.13-0.09,8.27,0,12.4-0.06c1.11-0.02,1.42,0.35,1.38,1.42
	c-0.08,1.99-0.07,3.99,0,5.98c0.04,1.03-0.33,1.33-1.33,1.32c-4.13-0.05-8.27,0.03-12.4-0.05c-1.29-0.02-1.74,0.29-1.73,1.67
	C517.91,84.33,517.88,93.09,517.88,101.84z"/>
<path class="st4" d="M104.75-69.97c1.63-1.21,3.24-2.45,4.9-3.62c6.31-4.49,12.64-8.94,18.95-13.43c5.4-3.84,10.82-7.66,16.15-11.61
	c1.15-0.85,2.73-1.33,3.24-2.93c1.41-0.03,2.81-0.1,4.22-0.1c7.83-0.01,15.66,0.03,23.49-0.04c1.33-0.01,1.59,0.39,1.57,1.63
	c-0.08,4.81-0.01,9.63-0.05,14.44c-0.05,5.85-2.65,10.42-7.13,14.04c-4.6,3.72-10.04,5.59-15.65,7.09
	c-10.45,2.79-20.99,3.32-31.61,1.19c-6.02-1.21-11.95-2.78-17.25-6.08C105.28-69.57,105.02-69.78,104.75-69.97z M166.97-83.28
	c0.01-4.45-3.43-7.99-7.74-7.95c-4.2,0.04-7.71,3.56-7.7,7.72c0.01,4.37,3.4,7.92,7.61,7.97C163.37-75.49,166.96-79.04,166.97-83.28
	z"/>
<path class="st4" d="M159.65-107c0.07-0.95,0.95-1.2,1.54-1.62c3.93-2.84,7.91-5.6,11.85-8.43c7.32-5.25,14.63-10.53,21.95-15.78
	c3.03-2.18,6.09-4.31,9.13-6.48c5.12-3.66,10.24-7.34,15.36-11c0.55-0.39,1.08-0.85,1.83-0.81c0.33,3.48,0.21,6.92-0.24,10.41
	c-0.4,3.1-0.83,6.19-1.62,9.2c-1.52,5.78-3.46,11.43-6.7,16.51c-3.26,5.11-7.9,7.99-14.02,8.03c-12.88,0.08-25.77,0.05-38.65,0.06
	C159.94-106.91,159.8-106.97,159.65-107z"/>
<path class="st5" d="M112.98-206.13c-4.34,0-7.62-3.37-7.63-7.85c-0.01-4.24,3.43-7.7,7.67-7.7c4.22,0,7.65,3.52,7.69,7.89
	C120.74-209.6,117.23-206.12,112.98-206.13z"/>
<path class="st6" d="M166.97-83.28c-0.01,4.24-3.6,7.79-7.83,7.73c-4.2-0.05-7.59-3.6-7.61-7.97c-0.01-4.16,3.49-7.68,7.7-7.72
	C163.54-91.27,166.99-87.73,166.97-83.28z"/>
<path class="st1" d="M791.56,25.16"/>
<path class="st7" d="M731.39,97.2"/>
<path class="st1" d="M665.59,56.08"/>
<path class="st1" d="M1047.5,257"/>
<path class="st8" d="M769.14,55.63c1.93,0.19,10.16-4.18,12.69-4.83c5.02-1.29,11.11-4.1,18.55-7.22c4.61-1.93,9.7-3,12.05-4.46
	c4.27-2.66,8.89-3.82,12.01-8.05c1.69-2.29,2.34-4.77,0.63-7.2c-2.17-3.07-4.75-5.29-8.71-5.96c-7.07-1.19-12.32,1.31-19.1,2.91
	c-4.53,1.07-5.8,2.23-9.37,3.57c-1.73,0.9-6.67,4.73-8.48,5.36c-2.61,0.91-6.59,4.58-9.37,6.25c-2.23,1.34-6.88,4.65-7.59,5.36
	c-1.79,1.79-4.02,3.12-6.25,5.36c-1.79,1.79-14.28,10.83-16.14,7.28c-0.26-0.5-0.33-1.14-0.36-1.72
	c-0.51-9.46-3.25-18.26-8.35-26.21c-5.81-9.06-13.9-15.51-24.56-17.44c-21.69-3.94-42.4-0.7-61.85,9.98
	c-7.04,3.87-13.49,8.67-20.42,12.7c-2.26,1.31-4.53,2.6-7.24,3.29c0.37-2.87,0.41-5.54,0.36-8.21c-0.02-1.17-0.26-2.26-1.51-2.72
	c-1.18-0.43-1.99,0.26-2.7,1.08c-2.03,2.37-4.05,4.74-6.07,7.12c-0.53,0.63-0.9,1.18-2,0.79c-6.76-2.42-13.79-2.8-20.88-2.46
	c-1.14,0.06-1.96-0.21-2.8-0.94c-1.73-1.51-3.49-3.01-5.36-4.35c-3.3-2.37-5.7-1.17-6,2.9c-0.14,1.84-0.11,3.68,0.24,5.49
	c0.13,0.66-0.02,1.35-0.44,1.87c-4.64,5.88-6.79,12.57-6.63,20.07c0.11,5.04,1.12,7.64,5.71,9.33c8.68,0.44,17.36,0.78,26.04,0.65
	c0,0,5.33,1.75,8.4,0.91c0.2-0.05,1.18-0.35,2.56-0.56c0.77-0.12,1.4-0.18,1.8-0.2c2.03-1.25,4.34-1.46,6.45-2.02
	c3.28-0.87,6.64,0.13,9.96-0.19c0.81-0.08,1.4,0.4,2.02,0.8c3.51,2.23,5.81,5.44,7.51,9.16c2.79,6.12,4.55,12.51,5.38,19.17
	c1.4,5.86,2.01,11.82,2.45,17.81c0.49,6.74,0.5,4.52,1.59,11.22c0,0.03,0.06,0.39,0.14,0.88c0.66,3.69,1.01,5.62,2.42,6.58
	c1.26,0.85,2.89,0.61,4.02,0.45c0.33-0.05,1.57-0.25,2.68-0.89c3.18-1.83,3.54-6.2,3.57-6.69c-0.03-0.47-0.1-1.19-0.24-2.08
	c-0.2-1.25-0.48-2.15-0.47-2.3c0.77-9.63-0.3-10.25-0.53-19.87c-0.27-11.08,0.06-22.09,3.62-32.74c1.53-0.33,2.85-0.46,3.87-0.52
	c3.2-0.18,5.59,0.3,6.25,0.45c1.23,0.27,2.25,0.59,2.98,0.87c1.61,6.08,5.85,10.34,10.23,14.43c3.84,3.58,6.71,7.73,8.01,12.81
	c1.03,4.05,1.35,8.25,1.74,12.41c0.44,4.77,1.72,9.31,3.56,13.7c0.71,1.69,1.53,3.43,3.75,3.67c-0.15-0.16-0.35-0.3-0.44-0.49
	c-0.35-0.75-0.66-1.58,0.2-2.17c0.73-0.5,1.13,0.2,1.29,0.71c0.3,0.97,0.38,1.97-1.12,2c0.58,0.35,1.17,0.58,1.78,0.72
	c1.08-0.01,2.19-0.05,3.3-0.16c-0.4-0.35-0.81-0.69-1.15-1.1c-0.43-0.53-0.7-1.18-0.31-1.84c0.18-0.31,0.6-0.44,0.99-0.29
	c0.68,0.26,0.95,0.83,1.15,1.5c0.24,0.77-0.38,1.17-0.63,1.72c2.04-0.21,4.07-0.64,5.82-1.51c0.5-0.74,1-1.5,1.53-2.26
	c2.87-4.15,0.24-9.44-0.19-14.04c-0.83-2.26-1.72-4.5-2.74-6.68c-2.89-6.13-1.4-11.76,0.71-17.51c1.46-4.88,5.3-7.44,9.4-9.81
	c3.52-2.03,7.08-4.01,10.21-6.66c-2.5,0.42,1.97-0.03,3.9-0.05c1.01,0.86,9.37-1.57,10.56-1.31 M606.77,43.69
	c1.07,0.38,2.19,0.71,2.89,1.59c-0.09,0.62-0.42,0.88-0.78,0.68c-0.98-0.56-2.36-0.51-2.88-1.73
	C605.88,43.92,606.37,43.55,606.77,43.69z M585.87,49.58c-3.84,1.02-7.84,0.72-11.71,1.61C577.88,49.23,581.76,48.38,585.87,49.58z
	 M573.85,26.45c1.41,0.04,4.02,2.56,4.04,4.01c0.02,1.63-1.25,2.11-2.51,2.28c-1.18,0.16-2.66-2.48-2.74-4.86
	C572.67,27.29,572.63,26.42,573.85,26.45z M571.39,42.76c0.89-0.82,2-1.14,3.17-1.28c0.15-0.02,0.34,0.25,0.46,0.34
	c-0.12,0.85-0.8,1-1.3,1.14c-0.73,0.2-1.39,1.03-2.24,0.38C571.36,43.24,571.3,42.84,571.39,42.76z M572.89,63.18
	c-0.65,0.17-1.5,1.14-1.9,0.22c-0.48-1.1,0.92-2.01,1.51-2.38c0.53-0.33,1.14-0.53,2.09-0.91c0.05,0.37,0.35,0.94,0.48,1.38
	C574.24,61.39,573.63,62.98,572.89,63.18z M574.63,59.82c-0.01,0.01-0.01,0.03-0.02,0.05c-1.56-0.4-2.74-0.13-3.9-0.04
	c-1.03,0.08-2.05,0.22-3.08,0.3c-0.35,0.03-0.78-0.01-0.82-0.51c-0.03-0.46,0.31-0.67,0.69-0.7c2.13-0.2,4.25-0.44,6.39-0.51
	C574.63,58.38,575.75,58.53,574.63,59.82z M577.13,61.46c-0.3,0.49-0.53,2.16-1.16,2.25c-0.88,0.12-0.47-1.77-0.76-2.15
	c0.1,0.02,0.21,0.05,0.26,0.01c0.44-0.31,0.58-1.14,1.37-0.83C577.08,60.83,577.33,61.13,577.13,61.46z M600.99,58.36
	c-1.3,0.78-2.79,0.94-4.24,1.22c-1.6,0.3-3.2,0.57-4.8,0.88c-1.19,0.22-2.36,1.45-2.49,3.02c-0.04,0.5-0.4,0.8-0.92,0.75
	c-0.52-0.05-0.81-0.43-0.79-0.9c0.1-1.86-1.27-3.08-2.58-3.43c-1.5-0.4-3.04-0.71-4.45-1.32c-1.39-0.61-2.59-1.79-2.36-3.41
	c0.22-1.52,1.73-1.93,3.07-2.09c1.54-0.19,3.1-0.18,4.7-0.25c3.88,0.29,7.79,0.57,11.7,0.89c0.95,0.08,1.9,0.28,2.82,0.53
	c0.89,0.25,1.63,0.81,1.74,1.81C602.51,57.13,601.86,57.84,600.99,58.36z M594.74,50.48c2.68-1.75,8.85-1.07,12.17,1.25
	C603.06,50.91,599.15,50.88,594.74,50.48z M606.73,64.18c-0.83-0.64-2.16-1.69-2.48-2.9c-0.08-0.29,0.39-0.64,0.79-0.45
	c0.96,0.45,2.03,1.78,2.54,2.75C607.44,64.15,606.98,64.37,606.73,64.18z M612.57,60.42c-2.06-0.1-4.13-0.21-6.19-0.3
	c-0.48-0.02-0.99-0.11-0.97-0.65c0.02-0.68,0.62-0.69,1.15-0.66c0.74,0.04,1.47,0.08,2.21,0.12c0-0.02,0-0.04,0-0.06
	c1.32,0.1,2.65,0.18,3.97,0.3c0.37,0.03,0.79,0.14,0.77,0.61C613.5,60.36,613.04,60.45,612.57,60.42z M614.58,57.29
	c-0.04,0.44-0.4,0.54-0.8,0.56c-1.4,0.05-2.8,0.13-4.21,0.19c-1.25,0.07-2.51,0.14-3.76,0.22c-0.49,0.03-0.96-0.11-0.99-0.61
	c-0.03-0.53,0.45-0.68,0.94-0.7c2.66-0.12,5.31-0.24,7.97-0.37C614.24,56.56,614.64,56.7,614.58,57.29z M615.49,29.04
	c-0.42,1.33-0.8,2.68-1.31,3.97c-0.45,1.13-1.38,1.67-3.18,1.65c-0.4,0-1.48-0.15-0.93-1.42c0.82-1.87,1.48-3.86,2.81-5.47
	c0.5-0.6,1.15-1.31,2.06-0.86C615.85,27.37,615.75,28.22,615.49,29.04z M647.03,126.37c-1.14,0-0.94-1.09-1.15-1.81
	c0.18-0.63,0.13-1.55,0.99-1.51c1.06,0.05,1.06,1.07,1.13,1.85C648.05,125.6,647.82,126.37,647.03,126.37z M651.07,125.37
	c-0.08,0.83-0.31,1.81-1.23,1.82c-0.87,0.01-0.59-1.01-0.75-1.62c0.25-0.71-0.06-1.9,1.02-1.92
	C650.91,123.63,651.15,124.57,651.07,125.37z M654.06,123.96c-0.17,0.68-0.29,1.59-1.18,1.63c-0.82,0.04-0.8-0.64-0.62-1.25
	c0.11-0.7,0.06-1.59,1.08-1.54C653.91,122.84,654.2,123.41,654.06,123.96z M707.13,117.29c0.78,0.48,1.49,1.11,1.57,2.12
	c0.04,0.53-0.4,1.08-0.98,0.78c-0.81-0.41-1.8-0.82-1.69-2.02C706.07,117.59,706.47,117.29,707.13,117.29z M812.06,35.01
	c2.41-1.12,4.85-2.19,6.76-4.12c0.29-0.29,0.66-0.46,0.98-0.21c0.45,0.34,0.26,0.79-0.05,1.14c-0.35,0.38-0.74,0.72-1.06,1.03
	c-1.94,1.36-4,2.35-6.07,3.33c-0.44,0.21-1.05,0.52-1.35-0.11C810.95,35.41,811.61,35.22,812.06,35.01z M812.21,29.08
	c1.9-0.78,3.93-1.63,5.98-2.45c0.34-0.14,0.74-0.2,0.96,0.21c0.22,0.42-0.03,0.73-0.38,0.88c-2.09,0.89-4.19,1.76-6.3,2.6
	c-0.19,0.08-0.61-0.08-0.74-0.26C811.45,29.67,811.8,29.41,812.21,29.08z M806.19,22.24c2.69-0.56,5.4-0.7,8.13-0.31
	c0.13,0.02,0.25,0.15,0.4,0.24c0.05,0.19,0.19,0.41,0.15,0.6c-0.07,0.33-0.37,0.43-0.69,0.4c-2.51-0.3-5-0.17-7.49,0.24
	c-0.42,0.07-0.73-0.16-0.88-0.51C805.67,22.58,805.89,22.31,806.19,22.24z"/>
<text transform="matrix(1.06 0 0 0.88 94.9043 147.5317)" class="st9 st10">KIS</text>
</svg>
